<?xml version="1.0" encoding="UTF-8" standalone="no"?>
<!-- Created with Inkscape (http://www.inkscape.org/) -->

<svg
   xmlns:dc="http://purl.org/dc/elements/1.1/"
   xmlns:cc="http://creativecommons.org/ns#"
   xmlns:rdf="http://www.w3.org/1999/02/22-rdf-syntax-ns#"
   xmlns:svg="http://www.w3.org/2000/svg"
   xmlns="http://www.w3.org/2000/svg"
   xmlns:sodipodi="http://sodipodi.sourceforge.net/DTD/sodipodi-0.dtd"
   xmlns:inkscape="http://www.inkscape.org/namespaces/inkscape"
   width="42.441101mm"
   height="58.665417mm"
   viewBox="0 0 42.441101 58.665417"
   version="1.1"
   id="svg8"
   inkscape:version="0.92.4 (5da689c313, 2019-01-14)"
   sodipodi:docname="grey_house_icon.svg">
  <defs
     id="defs2" />
  <sodipodi:namedview
     id="base"
     pagecolor="#ffffff"
     bordercolor="#666666"
     borderopacity="1.0"
     inkscape:pageopacity="0.0"
     inkscape:pageshadow="2"
     inkscape:zoom="0.35"
     inkscape:cx="-1021.5066"
     inkscape:cy="63.233672"
     inkscape:document-units="mm"
     inkscape:current-layer="layer1"
     showgrid="false"
     inkscape:window-width="3000"
     inkscape:window-height="1890"
     inkscape:window-x="-12"
     inkscape:window-y="-12"
     inkscape:window-maximized="1" />
  <metadata
     id="metadata5">
    <rdf:RDF>
      <cc:Work
         rdf:about="">
        <dc:format>image/svg+xml</dc:format>
        <dc:type
           rdf:resource="http://purl.org/dc/dcmitype/StillImage" />
        <dc:title />
      </cc:Work>
    </rdf:RDF>
  </metadata>
  <g
     inkscape:label="Layer 1"
     inkscape:groupmode="layer"
     id="layer1"
     transform="translate(-72.970057,-106.89849)">
    <path
       style="fill:#cccccc;stroke-width:0.26458332"
       d="m 90.377805,160.73963 c -10.38311,-13.87342 -16.131935,-24.16754 -17.261863,-30.9099 -0.510187,-3.04433 0.353356,-7.74806 2.034751,-11.0833 2.820064,-5.59393 7.836303,-9.64239 13.957194,-11.26443 2.935081,-0.77781 7.382073,-0.77803 10.31875,-5.3e-4 8.996933,2.382 15.465713,10.2318 15.933163,19.33474 0.12004,2.33772 0.0509,3.11262 -0.4363,4.8882 -1.64087,5.98028 -6.15204,14.17998 -13.32271,24.21596 -3.083047,4.31499 -6.955365,9.42358 -7.308541,9.64185 -0.114745,0.0709 -1.876245,-2.09925 -3.914444,-4.8226 z m 14.208205,-22.28174 c 0.49781,-0.49781 0.52916,-0.88195 0.52916,-6.4823 v -5.95312 h 1.81969 c 2.00899,0 2.59432,-0.3518 2.30542,-1.38563 -0.19345,-0.69229 -13.947954,-11.34353 -14.878104,-11.52134 -0.857909,-0.164 -15.176164,10.86973 -15.176164,11.69484 0,0.95375 0.518867,1.21213 2.434166,1.21213 h 1.799167 v 6.06652 c 0,5.16223 0.06198,6.12849 0.415774,6.48229 0.363165,0.36316 1.668823,0.41577 10.31875,0.41577 9.550201,0 9.921831,-0.0188 10.432141,-0.52916 z m -18.789466,-7.87136 c -0.0021,-3.3106 -0.09489,-6.16217 -0.205906,-6.33682 -0.111022,-0.17465 -0.473933,-0.41819 -0.806467,-0.54121 -0.544024,-0.20124 -0.102508,-0.61026 4.40598,-4.0816 l 5.010589,-3.85793 5.041718,3.86202 5.041722,3.86202 -0.77513,0.32592 -0.77512,0.32591 v 6.23048 6.23048 h -2.11667 -2.116665 v -4.09173 c 0,-3.77459 -0.03967,-4.11296 -0.511773,-4.36563 -0.281474,-0.15064 -2.058908,-0.27389 -3.949851,-0.27389 -2.772748,0 -3.518537,0.0805 -3.853852,0.41578 -0.340841,0.34084 -0.415774,1.12762 -0.415774,4.36562 v 3.94985 H 87.78497 85.800595 l -0.004,-6.01927 z m 6.354051,2.84427 v -3.175 h 1.984375 1.984375 v 3.175 3.175 H 94.13497 92.150595 Z"
       id="path826"
       inkscape:connector-curvature="0" />
  </g>
</svg>
