<?xml version="1.0" encoding="UTF-8" standalone="no"?>
<!-- Created with Inkscape (http://www.inkscape.org/) -->

<svg
   xmlns:dc="http://purl.org/dc/elements/1.1/"
   xmlns:cc="http://creativecommons.org/ns#"
   xmlns:rdf="http://www.w3.org/1999/02/22-rdf-syntax-ns#"
   xmlns:svg="http://www.w3.org/2000/svg"
   xmlns="http://www.w3.org/2000/svg"
   xmlns:sodipodi="http://sodipodi.sourceforge.net/DTD/sodipodi-0.dtd"
   xmlns:inkscape="http://www.inkscape.org/namespaces/inkscape"
   width="42.441109mm"
   height="58.665417mm"
   viewBox="0 0 42.441109 58.665417"
   version="1.1"
   id="svg8"
   inkscape:version="0.92.3 (2405546, 2018-03-11)"
   sodipodi:docname="hospital_icon.svg">
  <defs
     id="defs2" />
  <sodipodi:namedview
     id="base"
     pagecolor="#ffffff"
     bordercolor="#666666"
     borderopacity="1.0"
     inkscape:pageopacity="0.0"
     inkscape:pageshadow="2"
     inkscape:zoom="1.979899"
     inkscape:cx="11.605283"
     inkscape:cy="99.58912"
     inkscape:document-units="mm"
     inkscape:current-layer="layer1"
     showgrid="false"
     inkscape:window-width="960"
     inkscape:window-height="1052"
     inkscape:window-x="2326"
     inkscape:window-y="0"
     inkscape:window-maximized="0" />
  <metadata
     id="metadata5">
    <rdf:RDF>
      <cc:Work
         rdf:about="">
        <dc:format>image/svg+xml</dc:format>
        <dc:type
           rdf:resource="http://purl.org/dc/dcmitype/StillImage" />
        <dc:title />
      </cc:Work>
    </rdf:RDF>
  </metadata>
  <g
     inkscape:label="Layer 1"
     inkscape:groupmode="layer"
     id="layer1"
     transform="translate(-59.873851,-106.09668)">
    <path
       style="fill:#000000;stroke-width:0.26458332"
       d="m 77.281597,159.93782 c -10.38311,-13.87342 -16.13193,-24.16754 -17.26186,-30.9099 -0.51019,-3.04433 0.35335,-7.74806 2.03475,-11.0833 2.82006,-5.59393 7.8363,-9.64239 13.95719,-11.26443 2.93508,-0.77781 7.38208,-0.77803 10.31875,-5.3e-4 8.99694,2.382 15.465723,10.2318 15.933173,19.33474 0.12004,2.33772 0.0509,3.11262 -0.4363,4.8882 -1.64087,5.98028 -6.152043,14.17998 -13.322713,24.21596 -3.08305,4.31499 -6.95537,9.42358 -7.30854,9.64185 -0.11475,0.0709 -1.87625,-2.09925 -3.91445,-4.8226 z"
       id="path2007"
       inkscape:connector-curvature="0" />
    <path
       style="fill:#ffffff;stroke:#ffffff;stroke-width:0.51007265"
       d="m 86.31692,134.68518 0.152691,-4.75332 h 5.336668 5.336687 l -0.152692,-4.75332 -0.152691,-4.75333 -5.203241,-0.13956 -5.203261,-0.1394 v -4.6138 -4.61379 h -5.336665 -5.336687 v 4.61379 4.6138 l -5.203241,0.1394 -5.203263,0.13956 -0.152691,4.75333 -0.152692,4.75332 h 5.355989 5.35599 v 4.55019 c 0,2.50261 0.168421,4.7041 0.374399,4.89223 0.205896,0.18809 2.547362,0.2795 5.203241,0.20311 l 4.828884,-0.13893 z"
       id="path838"
       inkscape:connector-curvature="0" />
  </g>
</svg>
