<?xml version="1.0" encoding="UTF-8" standalone="no"?>
<!-- Generator: Adobe Illustrator 24.0.0, SVG Export Plug-In . SVG Version: 6.00 Build 0)  -->

<svg
   xmlns:dc="http://purl.org/dc/elements/1.1/"
   xmlns:cc="http://creativecommons.org/ns#"
   xmlns:rdf="http://www.w3.org/1999/02/22-rdf-syntax-ns#"
   xmlns:svg="http://www.w3.org/2000/svg"
   xmlns="http://www.w3.org/2000/svg"
   xmlns:sodipodi="http://sodipodi.sourceforge.net/DTD/sodipodi-0.dtd"
   xmlns:inkscape="http://www.inkscape.org/namespaces/inkscape"
   version="1.1"
   id="Layer_1"
   x="0px"
   y="0px"
   viewBox="0 0 120.31812 166.2547"
   xml:space="preserve"
   sodipodi:docname="hotel_marker_better.svg"
   width="120.31812"
   height="166.2547"
   inkscape:version="0.92.3 (2405546, 2018-03-11)"><metadata
   id="metadata1508"><rdf:RDF><cc:Work
       rdf:about=""><dc:format>image/svg+xml</dc:format><dc:type
         rdf:resource="http://purl.org/dc/dcmitype/StillImage" /><dc:title></dc:title></cc:Work></rdf:RDF></metadata><defs
   id="defs1506" />
<style
   type="text/css"
   id="style1486">
	.st0{fill:#FFFFFF;}
</style>
<g
   id="layer1"
   transform="translate(-293.40393,-178.85)">
	<path
   id="path826"
   d="m 342.7,331.4 c -29.4,-39.3 -45.7,-68.5 -48.9,-87.6 -1.4,-8.6 1,-22 5.8,-31.4 8,-15.9 22.2,-27.3 39.6,-31.9 8.3,-2.2 20.9,-2.2 29.2,0 25.5,6.8 43.8,29 45.2,54.8 0.3,6.6 0.1,8.8 -1.2,13.9 -4.7,17 -17.4,40.2 -37.8,68.6 -8.7,12.2 -19.7,26.7 -20.7,27.3 -0.4,0.2 -5.4,-6 -11.2,-13.7 z"
   inkscape:connector-curvature="0" />
</g>
<sodipodi:namedview
   bordercolor="#666666"
   borderopacity="1.0"
   id="base"
   pagecolor="#ffffff"
   showgrid="false"
   inkscape:zoom="0.2979798"
   inkscape:cx="-498.36607"
   inkscape:cy="-157.79378"
   inkscape:window-width="1366"
   inkscape:window-height="713"
   inkscape:window-x="59"
   inkscape:window-y="1107"
   inkscape:window-maximized="1"
   inkscape:current-layer="Layer_1">
	</sodipodi:namedview>
<sodipodi:namedview
   bordercolor="#666666"
   borderopacity="1.0"
   id="namedview1491"
   pagecolor="#ffffff"
   showgrid="false">
	</sodipodi:namedview>
<g
   id="g1501"
   transform="translate(-220.43387,-71.95151)">
	<path
   class="st0"
   d="m 287.7,128.3 c 0,0 0,0 0,0 -12,0 -23.9,0 -35.9,0 -2.7,0 -2.8,-0.1 -2.8,-2.7 0,-7.9 0,-15.9 0,-23.8 0,-2.3 -1.3,-3.2 -4.2,-3.2 -2.4,0 -3.8,1 -3.8,3 0,14.9 0,29.8 0,44.7 0,2.2 1.2,3.1 4.1,3.1 2.7,0 3.9,-0.9 3.9,-3.1 0.1,-1.7 0,-3.3 0,-5 0,-2.7 0,-2.7 2.8,-2.7 20.8,0 41.6,0 62.3,0 0.7,0 1.3,0 2,0 1.5,-0.1 2.2,0.4 2.1,1.9 -0.1,1.8 0,3.6 0,5.4 0,2.5 1.1,3.5 3.9,3.5 3.2,0 4.2,-0.8 4.2,-3.5 0,-5.1 -0.1,-10.1 0,-15.2 0.1,-1.9 -0.7,-2.4 -2.6,-2.4 -11.9,0.1 -23.9,0 -36,0 z m 11.6,-3.2 c 8.3,0 16.6,0 24.9,0 1.6,0 2.3,-0.4 2.1,-2 -0.1,-1.5 0,-3 0,-4.4 -0.1,-6.7 -5.2,-11.8 -12.3,-11.9 -11.9,-0.1 -23.8,-0.1 -35.7,0 -3.8,0 -5.9,2.1 -5.9,5.7 0,3.5 0.1,6.9 0,10.4 -0.1,1.8 0.5,2.3 2.4,2.3 8.2,-0.1 16.4,-0.1 24.5,-0.1 z m -38.5,0 c 4.7,0 8.3,-3.4 8.3,-7.8 0,-4.4 -3.7,-7.8 -8.3,-7.8 -4.6,0 -8.4,3.6 -8.4,7.8 0,4.3 3.8,7.8 8.4,7.8 z"
   id="path1493"
   inkscape:connector-curvature="0"
   style="fill:#ffffff" />
	<path
   class="st0"
   d="m 287.7,128.3 c 12,0 24,0 36.1,0 1.9,0 2.6,0.4 2.6,2.4 -0.1,5 0,10.1 0,15.2 0,2.7 -1,3.6 -4.2,3.5 -2.8,0 -3.9,-0.9 -3.9,-3.5 0,-1.8 -0.1,-3.6 0,-5.4 0.1,-1.5 -0.6,-2 -2.1,-1.9 -0.6,0.1 -1.3,0 -2,0 -20.8,0 -41.6,0 -62.3,0 -2.8,0 -2.8,0 -2.8,2.7 0,1.7 0,3.3 0,5 -0.1,2.2 -1.2,3.1 -3.9,3.1 -2.9,0 -4.1,-0.8 -4.1,-3.1 0,-14.9 0,-29.8 0,-44.7 0,-2 1.4,-3.1 3.8,-3 2.9,0 4.2,0.9 4.2,3.2 0,7.9 0,15.9 0,23.8 0,2.6 0.1,2.7 2.8,2.7 11.9,0 23.9,0 35.8,0 0,0 0,0 0,0 z"
   id="path1495"
   inkscape:connector-curvature="0"
   style="fill:#ffffff" />
	<path
   class="st0"
   d="m 299.3,125.1 c -8.2,0 -16.3,-0.1 -24.5,0 -1.9,0 -2.5,-0.5 -2.4,-2.3 0.1,-3.4 0,-6.9 0,-10.4 0,-3.6 2.1,-5.7 5.9,-5.7 11.9,-0.1 23.8,-0.1 35.7,0 7.1,0.1 12.2,5.2 12.3,11.9 0,1.5 -0.1,3 0,4.4 0.1,1.6 -0.5,2 -2.1,2 -8.3,0.1 -16.6,0.1 -24.9,0.1 z"
   id="path1497"
   inkscape:connector-curvature="0"
   style="fill:#ffffff" />
	<path
   class="st0"
   d="m 260.8,125.1 c -4.6,0 -8.4,-3.5 -8.4,-7.8 0,-4.3 3.8,-7.8 8.4,-7.8 4.6,0 8.3,3.5 8.3,7.8 0,4.4 -3.6,7.8 -8.3,7.8 z"
   id="path1499"
   inkscape:connector-curvature="0"
   style="fill:#ffffff" />
</g>
<sodipodi:namedview
   bordercolor="#666666"
   borderopacity="1.0"
   id="namedview1503"
   pagecolor="#ffffff"
   showgrid="false">
	</sodipodi:namedview>
</svg>